<svg
	width="31"
	height="31"
	viewBox="0 0 31 31"
	fill="none"
	xmlns="http://www.w3.org/2000/svg"
>
	<path
		d="M16.3619 24.5297L15.2486 30.2492C15.2043 30.2492 15.1579 30.2492 15.1135 30.2492C6.96181 30.2512 0.316629 23.8037 0 15.7306H9.273C14.1313 15.7306 17.3057 19.6693 16.3619 24.5297Z"
		fill="url(#paint0_linear_152_648)"
	/>
	<path
		d="M9.50896 14.5206H0C0.316629 6.44754 6.96181 0 15.1135 0C17.1665 0 19.1228 0.4094 20.9056 1.15156L20.0162 5.72151C19.0724 10.5819 14.3673 14.5206 9.50896 14.5206Z"
		fill="url(#paint1_linear_152_648)"
	/>
	<path
		d="M28.0791 15.7306H30.225C29.9265 23.3499 23.9892 29.5232 16.4708 30.1887L17.5719 24.5297C18.5157 19.6693 23.2208 15.7306 28.0791 15.7306Z"
		fill="url(#paint2_linear_152_648)"
	/>
	<path
		d="M21.2263 5.72151L22.0148 1.66382C26.7279 4.08593 30.0052 8.90999 30.225 14.5206H28.3151C23.4548 14.5206 20.2824 10.5819 21.2263 5.72151Z"
		fill="url(#paint3_linear_152_648)"
	/>
	<defs>
		<linearGradient
			id="paint0_linear_152_648"
			x1="0"
			y1="15.1246"
			x2="30.225"
			y2="15.1246"
			gradientUnits="userSpaceOnUse"
		>
			<stop stop-color="#6749FF" />
			<stop
				offset="0.691"
				stop-color="#D3CBFF"
			/>
			<stop
				offset="1"
				stop-color="#6142FF"
			/>
		</linearGradient>
		<linearGradient
			id="paint1_linear_152_648"
			x1="0"
			y1="15.1246"
			x2="30.225"
			y2="15.1246"
			gradientUnits="userSpaceOnUse"
		>
			<stop stop-color="#6749FF" />
			<stop
				offset="0.691"
				stop-color="#D3CBFF"
			/>
			<stop
				offset="1"
				stop-color="#6142FF"
			/>
		</linearGradient>
		<linearGradient
			id="paint2_linear_152_648"
			x1="0"
			y1="15.1246"
			x2="30.225"
			y2="15.1246"
			gradientUnits="userSpaceOnUse"
		>
			<stop stop-color="#6749FF" />
			<stop
				offset="0.691"
				stop-color="#D3CBFF"
			/>
			<stop
				offset="1"
				stop-color="#6142FF"
			/>
		</linearGradient>
		<linearGradient
			id="paint3_linear_152_648"
			x1="0"
			y1="15.1246"
			x2="30.225"
			y2="15.1246"
			gradientUnits="userSpaceOnUse"
		>
			<stop stop-color="#6749FF" />
			<stop
				offset="0.691"
				stop-color="#D3CBFF"
			/>
			<stop
				offset="1"
				stop-color="#6142FF"
			/>
		</linearGradient>
	</defs>
</svg>
