<svg width="75" height="75" viewBox="0 0 75 75" fill="none" xmlns="http://www.w3.org/2000/svg">
    <path d="M40.565 60.815L37.805 74.995C37.695 74.995 37.58 74.995 37.47 74.995C17.26 75 0.785 59.015 0 39H22.99C35.035 39 42.905 48.765 40.565 60.815Z" fill="#4E4AFF"/>
    <path d="M23.575 36H0C0.785 15.985 17.26 0 37.47 0C42.56 0 47.41 1.015 51.83 2.855L49.625 14.185C47.285 26.235 35.62 36 23.575 36Z" fill="#4E4AFF"/>
    <path d="M69.615 39H74.935C74.195 57.89 59.475 73.195 40.835 74.845L43.565 60.815C45.905 48.765 57.57 39 69.615 39Z" fill="#4E4AFF"/>
    <path d="M52.625 14.185L54.58 4.125C66.265 10.13 74.39 22.09 74.935 36H70.2C58.15 36 50.285 26.235 52.625 14.185Z" fill="#4E4AFF"/>
</svg>
