<svg
	width="60"
	height="60"
	viewBox="0 0 60 60"
	fill="none"
	xmlns="http://www.w3.org/2000/svg"
>
	<path
		d="M44.8434 4.02188C30.5463 -4.25732 12.2643 0.65461 4.00975 15.0013C-4.24482 29.3479 0.654108 47.6932 14.9512 55.9764C29.2483 64.2595 47.5303 59.3436 55.7849 44.997C64.0355 30.6503 59.1405 12.3051 44.8434 4.02188ZM53.2483 26.9058C49.9481 32.6437 40.0276 33.1003 31.0924 27.9224C22.1572 22.7444 17.5906 13.8974 20.8909 8.1595C24.1951 2.42163 34.1156 1.96499 43.0508 7.13899C51.986 12.317 56.5525 21.168 53.2483 26.9058Z"
		fill="url(#paint0_linear_42_107)"
	/>
	<path
		d="M51.5272 25.2141L51.3768 25.4722L51.2264 25.7343L51.076 25.9924L50.9296 26.2505C47.5067 24.2691 43.7712 23.181 40.4037 23.181C36.6602 23.181 33.728 24.543 32.3588 26.9216L32.0976 26.7747L31.8404 26.6238L31.5832 26.4729L31.322 26.322C32.616 24.0785 32.4498 21.144 30.863 18.0666C29.2287 14.9018 26.3004 11.9833 22.6164 9.85094L22.7667 9.58886L22.9131 9.33076L23.0635 9.06868L23.2139 8.81058C26.6328 10.792 30.3723 11.88 33.7399 11.88C37.4833 11.88 40.4155 10.518 41.7847 8.1395L42.0419 8.2904L42.3031 8.44129L42.5603 8.58821L42.8215 8.7391C40.099 13.4644 44.0047 20.8581 51.5272 25.2141Z"
		fill="url(#paint0_linear_42_107)"
	/>
	<path
		d="M32.0977 26.7707L32.0976 26.7747L31.8404 26.6238L32.0977 26.7707Z"
		fill="url(#paint0_linear_42_107)"
	/>
	<defs>
		<linearGradient
			id="paint0_linear_42_107"
			x1="15.6263"
			y1="30"
			x2="15.6263"
			y2="0"
			gradientUnits="userSpaceOnUse"
		>
			<stop stop-color="#5635FF" />
			<stop
				offset="1"
				stop-color="white"
			/>
		</linearGradient>
	</defs>
</svg>
